<mxfile host="app.diagrams.net" modified="2021-10-27T15:59:23.747Z" agent="5.0 (Windows NT 10.0; Win64; x64) AppleWebKit/537.36 (KHTML, like Gecko) Chrome/95.0.4638.54 Safari/537.36 Edg/95.0.1020.30" etag="NAA-_e9yhkxwhtYOCjwe" version="15.6.0" type="github">
  <diagram id="C5RBs43oDa-KdzZeNtuy" name="Page-1">
    <mxGraphModel dx="1008" dy="651" grid="1" gridSize="10" guides="1" tooltips="1" connect="1" arrows="1" fold="1" page="1" pageScale="1" pageWidth="827" pageHeight="1169" math="0" shadow="0">
      <root>
        <mxCell id="WIyWlLk6GJQsqaUBKTNV-0" />
        <mxCell id="WIyWlLk6GJQsqaUBKTNV-1" parent="WIyWlLk6GJQsqaUBKTNV-0" />
        <mxCell id="SwvnbYHAxAY3qFGDEWiC-3" value="" style="edgeStyle=orthogonalEdgeStyle;rounded=0;orthogonalLoop=1;jettySize=auto;html=1;fontSize=18;" edge="1" parent="WIyWlLk6GJQsqaUBKTNV-1" source="WIyWlLk6GJQsqaUBKTNV-6" target="SwvnbYHAxAY3qFGDEWiC-0">
          <mxGeometry relative="1" as="geometry" />
        </mxCell>
        <mxCell id="WIyWlLk6GJQsqaUBKTNV-2" value="" style="rounded=0;html=1;jettySize=auto;orthogonalLoop=1;fontSize=11;endArrow=block;endFill=0;endSize=8;strokeWidth=1;shadow=0;labelBackgroundColor=none;edgeStyle=orthogonalEdgeStyle;" parent="WIyWlLk6GJQsqaUBKTNV-1" source="WIyWlLk6GJQsqaUBKTNV-3" target="WIyWlLk6GJQsqaUBKTNV-6" edge="1">
          <mxGeometry relative="1" as="geometry" />
        </mxCell>
        <mxCell id="WIyWlLk6GJQsqaUBKTNV-3" value="问题定义" style="rounded=1;whiteSpace=wrap;html=1;fontSize=16;glass=0;strokeWidth=1;shadow=0;" parent="WIyWlLk6GJQsqaUBKTNV-1" vertex="1">
          <mxGeometry x="165" y="80" width="120" height="40" as="geometry" />
        </mxCell>
        <mxCell id="WIyWlLk6GJQsqaUBKTNV-6" value="数据采集&lt;br style=&quot;font-size: 16px;&quot;&gt;与处理" style="rhombus;whiteSpace=wrap;html=1;shadow=0;fontFamily=Helvetica;fontSize=16;align=center;strokeWidth=1;spacing=6;spacingTop=-4;" parent="WIyWlLk6GJQsqaUBKTNV-1" vertex="1">
          <mxGeometry x="170" y="170" width="110" height="120" as="geometry" />
        </mxCell>
        <mxCell id="WIyWlLk6GJQsqaUBKTNV-7" value="数据净化与转换" style="rounded=1;whiteSpace=wrap;html=1;fontSize=12;glass=0;strokeWidth=1;shadow=0;" parent="WIyWlLk6GJQsqaUBKTNV-1" vertex="1">
          <mxGeometry x="355" y="204" width="120" height="40" as="geometry" />
        </mxCell>
        <mxCell id="WIyWlLk6GJQsqaUBKTNV-11" value="结果分析利用" style="rounded=1;whiteSpace=wrap;html=1;fontSize=16;glass=0;strokeWidth=1;shadow=0;" parent="WIyWlLk6GJQsqaUBKTNV-1" vertex="1">
          <mxGeometry x="165" y="440" width="120" height="40" as="geometry" />
        </mxCell>
        <mxCell id="WIyWlLk6GJQsqaUBKTNV-12" value="执行数据挖掘算法&lt;br&gt;（分类、聚类、关联）" style="rounded=1;whiteSpace=wrap;html=1;fontSize=12;glass=0;strokeWidth=1;shadow=0;" parent="WIyWlLk6GJQsqaUBKTNV-1" vertex="1">
          <mxGeometry x="350" y="340" width="130.03" height="40" as="geometry" />
        </mxCell>
        <mxCell id="SwvnbYHAxAY3qFGDEWiC-0" value="数据搜集与筛选" style="rounded=1;whiteSpace=wrap;html=1;fontSize=12;glass=0;strokeWidth=1;shadow=0;" vertex="1" parent="WIyWlLk6GJQsqaUBKTNV-1">
          <mxGeometry x="354" y="150" width="120" height="40" as="geometry" />
        </mxCell>
        <mxCell id="SwvnbYHAxAY3qFGDEWiC-4" value="" style="endArrow=classic;html=1;rounded=0;fontSize=18;" edge="1" parent="WIyWlLk6GJQsqaUBKTNV-1">
          <mxGeometry width="50" height="50" relative="1" as="geometry">
            <mxPoint x="316" y="229.71" as="sourcePoint" />
            <mxPoint x="356" y="229.71" as="targetPoint" />
            <Array as="points">
              <mxPoint x="340" y="230" />
            </Array>
          </mxGeometry>
        </mxCell>
        <mxCell id="SwvnbYHAxAY3qFGDEWiC-5" value="" style="endArrow=classic;html=1;rounded=0;fontSize=18;" edge="1" parent="WIyWlLk6GJQsqaUBKTNV-1">
          <mxGeometry width="50" height="50" relative="1" as="geometry">
            <mxPoint x="317" y="280" as="sourcePoint" />
            <mxPoint x="357" y="280" as="targetPoint" />
          </mxGeometry>
        </mxCell>
        <mxCell id="SwvnbYHAxAY3qFGDEWiC-6" value="" style="endArrow=none;html=1;rounded=0;fontSize=18;" edge="1" parent="WIyWlLk6GJQsqaUBKTNV-1">
          <mxGeometry width="50" height="50" relative="1" as="geometry">
            <mxPoint x="317" y="280" as="sourcePoint" />
            <mxPoint x="317" y="230" as="targetPoint" />
          </mxGeometry>
        </mxCell>
        <mxCell id="SwvnbYHAxAY3qFGDEWiC-7" value="挖掘算法选择" style="rounded=1;whiteSpace=wrap;html=1;fontSize=12;glass=0;strokeWidth=1;shadow=0;" vertex="1" parent="WIyWlLk6GJQsqaUBKTNV-1">
          <mxGeometry x="355" y="258" width="120" height="40" as="geometry" />
        </mxCell>
        <mxCell id="SwvnbYHAxAY3qFGDEWiC-9" value="" style="edgeStyle=orthogonalEdgeStyle;rounded=0;orthogonalLoop=1;jettySize=auto;html=1;fontSize=18;" edge="1" parent="WIyWlLk6GJQsqaUBKTNV-1" target="SwvnbYHAxAY3qFGDEWiC-11">
          <mxGeometry relative="1" as="geometry">
            <mxPoint x="284.99839080459765" y="466.0344827586207" as="sourcePoint" />
            <Array as="points">
              <mxPoint x="320" y="466" />
              <mxPoint x="320" y="413" />
            </Array>
          </mxGeometry>
        </mxCell>
        <mxCell id="SwvnbYHAxAY3qFGDEWiC-10" value="服务" style="rounded=1;whiteSpace=wrap;html=1;fontSize=12;glass=0;strokeWidth=1;shadow=0;" vertex="1" parent="WIyWlLk6GJQsqaUBKTNV-1">
          <mxGeometry x="360.03" y="447" width="120" height="40" as="geometry" />
        </mxCell>
        <mxCell id="SwvnbYHAxAY3qFGDEWiC-11" value="营销" style="rounded=1;whiteSpace=wrap;html=1;fontSize=12;glass=0;strokeWidth=1;shadow=0;" vertex="1" parent="WIyWlLk6GJQsqaUBKTNV-1">
          <mxGeometry x="359.03" y="393" width="120" height="40" as="geometry" />
        </mxCell>
        <mxCell id="SwvnbYHAxAY3qFGDEWiC-12" value="" style="endArrow=classic;html=1;rounded=0;fontSize=18;" edge="1" parent="WIyWlLk6GJQsqaUBKTNV-1">
          <mxGeometry width="50" height="50" relative="1" as="geometry">
            <mxPoint x="320.03" y="465.8" as="sourcePoint" />
            <mxPoint x="360.03" y="465.8" as="targetPoint" />
          </mxGeometry>
        </mxCell>
        <mxCell id="SwvnbYHAxAY3qFGDEWiC-13" value="" style="endArrow=classic;html=1;rounded=0;fontSize=18;" edge="1" parent="WIyWlLk6GJQsqaUBKTNV-1">
          <mxGeometry width="50" height="50" relative="1" as="geometry">
            <mxPoint x="320" y="523" as="sourcePoint" />
            <mxPoint x="360.03" y="523" as="targetPoint" />
          </mxGeometry>
        </mxCell>
        <mxCell id="SwvnbYHAxAY3qFGDEWiC-14" value="" style="endArrow=none;html=1;rounded=0;fontSize=18;" edge="1" parent="WIyWlLk6GJQsqaUBKTNV-1">
          <mxGeometry width="50" height="50" relative="1" as="geometry">
            <mxPoint x="320.03" y="523" as="sourcePoint" />
            <mxPoint x="320" y="460" as="targetPoint" />
          </mxGeometry>
        </mxCell>
        <mxCell id="SwvnbYHAxAY3qFGDEWiC-15" value="管理" style="rounded=1;whiteSpace=wrap;html=1;fontSize=12;glass=0;strokeWidth=1;shadow=0;" vertex="1" parent="WIyWlLk6GJQsqaUBKTNV-1">
          <mxGeometry x="360.03" y="501" width="120" height="40" as="geometry" />
        </mxCell>
        <mxCell id="WIyWlLk6GJQsqaUBKTNV-10" value="数据挖掘" style="rhombus;whiteSpace=wrap;html=1;shadow=0;fontFamily=Helvetica;fontSize=16;align=center;strokeWidth=1;spacing=6;spacingTop=-4;" parent="WIyWlLk6GJQsqaUBKTNV-1" vertex="1">
          <mxGeometry x="175" y="320" width="100" height="80" as="geometry" />
        </mxCell>
        <mxCell id="SwvnbYHAxAY3qFGDEWiC-16" value="" style="edgeStyle=orthogonalEdgeStyle;rounded=0;orthogonalLoop=1;jettySize=auto;html=1;fontSize=18;" edge="1" parent="WIyWlLk6GJQsqaUBKTNV-1" source="WIyWlLk6GJQsqaUBKTNV-10" target="WIyWlLk6GJQsqaUBKTNV-12">
          <mxGeometry relative="1" as="geometry" />
        </mxCell>
        <mxCell id="SwvnbYHAxAY3qFGDEWiC-17" value="" style="rounded=0;html=1;jettySize=auto;orthogonalLoop=1;fontSize=11;endArrow=block;endFill=0;endSize=8;strokeWidth=1;shadow=0;labelBackgroundColor=none;edgeStyle=orthogonalEdgeStyle;exitX=0.5;exitY=1;exitDx=0;exitDy=0;entryX=0.5;entryY=0;entryDx=0;entryDy=0;" edge="1" parent="WIyWlLk6GJQsqaUBKTNV-1" source="WIyWlLk6GJQsqaUBKTNV-6" target="WIyWlLk6GJQsqaUBKTNV-10">
          <mxGeometry relative="1" as="geometry">
            <mxPoint x="150" y="310" as="sourcePoint" />
            <mxPoint x="150" y="360" as="targetPoint" />
          </mxGeometry>
        </mxCell>
        <mxCell id="SwvnbYHAxAY3qFGDEWiC-18" value="" style="rounded=0;html=1;jettySize=auto;orthogonalLoop=1;fontSize=11;endArrow=block;endFill=0;endSize=8;strokeWidth=1;shadow=0;labelBackgroundColor=none;edgeStyle=orthogonalEdgeStyle;exitX=0.5;exitY=1;exitDx=0;exitDy=0;entryX=0.5;entryY=0;entryDx=0;entryDy=0;" edge="1" parent="WIyWlLk6GJQsqaUBKTNV-1" source="WIyWlLk6GJQsqaUBKTNV-10" target="WIyWlLk6GJQsqaUBKTNV-11">
          <mxGeometry relative="1" as="geometry">
            <mxPoint x="120" y="330" as="sourcePoint" />
            <mxPoint x="120" y="380" as="targetPoint" />
          </mxGeometry>
        </mxCell>
        <mxCell id="SwvnbYHAxAY3qFGDEWiC-19" value="数据挖掘算法" style="rounded=1;whiteSpace=wrap;html=1;fontSize=16;" vertex="1" parent="WIyWlLk6GJQsqaUBKTNV-1">
          <mxGeometry x="79" y="810" width="120" height="50" as="geometry" />
        </mxCell>
        <mxCell id="SwvnbYHAxAY3qFGDEWiC-20" value="" style="endArrow=none;html=1;rounded=0;fontSize=16;entryX=0;entryY=0.5;entryDx=0;entryDy=0;exitX=1;exitY=0.5;exitDx=0;exitDy=0;" edge="1" parent="WIyWlLk6GJQsqaUBKTNV-1" source="SwvnbYHAxAY3qFGDEWiC-19" target="SwvnbYHAxAY3qFGDEWiC-23">
          <mxGeometry width="50" height="50" relative="1" as="geometry">
            <mxPoint x="190" y="830" as="sourcePoint" />
            <mxPoint x="250" y="790" as="targetPoint" />
          </mxGeometry>
        </mxCell>
        <mxCell id="SwvnbYHAxAY3qFGDEWiC-22" value="" style="endArrow=none;html=1;rounded=0;fontSize=16;exitX=1;exitY=0.5;exitDx=0;exitDy=0;entryX=0;entryY=0.5;entryDx=0;entryDy=0;" edge="1" parent="WIyWlLk6GJQsqaUBKTNV-1" source="SwvnbYHAxAY3qFGDEWiC-19" target="SwvnbYHAxAY3qFGDEWiC-24">
          <mxGeometry width="50" height="50" relative="1" as="geometry">
            <mxPoint x="340" y="910" as="sourcePoint" />
            <mxPoint x="250" y="870" as="targetPoint" />
          </mxGeometry>
        </mxCell>
        <mxCell id="SwvnbYHAxAY3qFGDEWiC-23" value="有监督学习" style="rounded=1;whiteSpace=wrap;html=1;fontSize=16;" vertex="1" parent="WIyWlLk6GJQsqaUBKTNV-1">
          <mxGeometry x="235" y="760" width="112" height="50" as="geometry" />
        </mxCell>
        <mxCell id="SwvnbYHAxAY3qFGDEWiC-24" value="无监督学习" style="rounded=1;whiteSpace=wrap;html=1;fontSize=16;" vertex="1" parent="WIyWlLk6GJQsqaUBKTNV-1">
          <mxGeometry x="235" y="856" width="112" height="50" as="geometry" />
        </mxCell>
        <mxCell id="SwvnbYHAxAY3qFGDEWiC-25" value="" style="endArrow=none;html=1;rounded=0;fontSize=16;exitX=1;exitY=0.5;exitDx=0;exitDy=0;" edge="1" parent="WIyWlLk6GJQsqaUBKTNV-1" source="SwvnbYHAxAY3qFGDEWiC-23">
          <mxGeometry width="50" height="50" relative="1" as="geometry">
            <mxPoint x="347" y="790" as="sourcePoint" />
            <mxPoint x="390" y="760" as="targetPoint" />
          </mxGeometry>
        </mxCell>
        <mxCell id="SwvnbYHAxAY3qFGDEWiC-27" value="分类模型" style="rounded=1;whiteSpace=wrap;html=1;fontSize=16;" vertex="1" parent="WIyWlLk6GJQsqaUBKTNV-1">
          <mxGeometry x="387" y="743" width="120" height="30" as="geometry" />
        </mxCell>
        <mxCell id="SwvnbYHAxAY3qFGDEWiC-28" value="预测模型" style="rounded=1;whiteSpace=wrap;html=1;fontSize=16;" vertex="1" parent="WIyWlLk6GJQsqaUBKTNV-1">
          <mxGeometry x="386" y="791" width="120" height="30" as="geometry" />
        </mxCell>
        <mxCell id="SwvnbYHAxAY3qFGDEWiC-29" value="" style="endArrow=none;html=1;rounded=0;fontSize=16;" edge="1" parent="WIyWlLk6GJQsqaUBKTNV-1">
          <mxGeometry width="50" height="50" relative="1" as="geometry">
            <mxPoint x="347" y="880.5" as="sourcePoint" />
            <mxPoint x="390" y="860.5" as="targetPoint" />
          </mxGeometry>
        </mxCell>
        <mxCell id="SwvnbYHAxAY3qFGDEWiC-30" value="" style="endArrow=none;html=1;rounded=0;fontSize=16;" edge="1" parent="WIyWlLk6GJQsqaUBKTNV-1">
          <mxGeometry width="50" height="50" relative="1" as="geometry">
            <mxPoint x="348" y="880.5" as="sourcePoint" />
            <mxPoint x="388" y="900.5" as="targetPoint" />
            <Array as="points">
              <mxPoint x="368" y="890.5" />
            </Array>
          </mxGeometry>
        </mxCell>
        <mxCell id="SwvnbYHAxAY3qFGDEWiC-31" value="关联分析" style="rounded=1;whiteSpace=wrap;html=1;fontSize=16;" vertex="1" parent="WIyWlLk6GJQsqaUBKTNV-1">
          <mxGeometry x="387" y="843.5" width="120" height="30" as="geometry" />
        </mxCell>
        <mxCell id="SwvnbYHAxAY3qFGDEWiC-32" value="聚类分析" style="rounded=1;whiteSpace=wrap;html=1;fontSize=16;" vertex="1" parent="WIyWlLk6GJQsqaUBKTNV-1">
          <mxGeometry x="386" y="888.5" width="120" height="30" as="geometry" />
        </mxCell>
        <mxCell id="SwvnbYHAxAY3qFGDEWiC-34" value="" style="shape=curlyBracket;whiteSpace=wrap;html=1;rounded=1;fontSize=16;" vertex="1" parent="WIyWlLk6GJQsqaUBKTNV-1">
          <mxGeometry x="507" y="738" width="20" height="40" as="geometry" />
        </mxCell>
        <mxCell id="SwvnbYHAxAY3qFGDEWiC-35" value="逻辑回归" style="text;html=1;align=center;verticalAlign=middle;resizable=0;points=[];autosize=1;strokeColor=none;fillColor=none;fontSize=13;" vertex="1" parent="WIyWlLk6GJQsqaUBKTNV-1">
          <mxGeometry x="521" y="730" width="70" height="20" as="geometry" />
        </mxCell>
        <mxCell id="SwvnbYHAxAY3qFGDEWiC-36" value="决策树" style="text;html=1;align=center;verticalAlign=middle;resizable=0;points=[];autosize=1;strokeColor=none;fillColor=none;fontSize=13;" vertex="1" parent="WIyWlLk6GJQsqaUBKTNV-1">
          <mxGeometry x="528" y="763" width="50" height="20" as="geometry" />
        </mxCell>
        <mxCell id="SwvnbYHAxAY3qFGDEWiC-37" value="" style="shape=curlyBracket;whiteSpace=wrap;html=1;rounded=1;fontSize=16;" vertex="1" parent="WIyWlLk6GJQsqaUBKTNV-1">
          <mxGeometry x="506" y="791" width="20" height="40" as="geometry" />
        </mxCell>
        <mxCell id="SwvnbYHAxAY3qFGDEWiC-38" value="回归分析" style="text;html=1;align=center;verticalAlign=middle;resizable=0;points=[];autosize=1;strokeColor=none;fillColor=none;fontSize=13;" vertex="1" parent="WIyWlLk6GJQsqaUBKTNV-1">
          <mxGeometry x="520" y="783" width="70" height="20" as="geometry" />
        </mxCell>
        <mxCell id="SwvnbYHAxAY3qFGDEWiC-39" value="神经网络" style="text;html=1;align=center;verticalAlign=middle;resizable=0;points=[];autosize=1;strokeColor=none;fillColor=none;fontSize=13;" vertex="1" parent="WIyWlLk6GJQsqaUBKTNV-1">
          <mxGeometry x="517" y="816" width="70" height="20" as="geometry" />
        </mxCell>
        <mxCell id="SwvnbYHAxAY3qFGDEWiC-40" value="" style="endArrow=none;html=1;rounded=0;fontSize=16;entryX=-0.008;entryY=0.451;entryDx=0;entryDy=0;entryPerimeter=0;" edge="1" parent="WIyWlLk6GJQsqaUBKTNV-1">
          <mxGeometry width="50" height="50" relative="1" as="geometry">
            <mxPoint x="348" y="785" as="sourcePoint" />
            <mxPoint x="386.03999999999996" y="804.53" as="targetPoint" />
            <Array as="points">
              <mxPoint x="368" y="795" />
            </Array>
          </mxGeometry>
        </mxCell>
        <mxCell id="SwvnbYHAxAY3qFGDEWiC-42" value="&lt;span style=&quot;color: rgb(51 , 51 , 51) ; font-family: &amp;#34;helvetica neue&amp;#34; , &amp;#34;helvetica&amp;#34; , &amp;#34;arial&amp;#34; , &amp;#34;pingfang sc&amp;#34; , &amp;#34;hiragino sans gb&amp;#34; , &amp;#34;microsoft yahei&amp;#34; , &amp;#34;wenquanyi micro hei&amp;#34; , sans-serif ; font-size: 14px ; text-indent: 28px ; background-color: rgb(255 , 255 , 255)&quot;&gt;Apriori算法&lt;/span&gt;" style="text;html=1;align=center;verticalAlign=middle;resizable=0;points=[];autosize=1;strokeColor=none;fillColor=none;fontSize=13;" vertex="1" parent="WIyWlLk6GJQsqaUBKTNV-1">
          <mxGeometry x="512" y="847" width="80" height="20" as="geometry" />
        </mxCell>
        <mxCell id="SwvnbYHAxAY3qFGDEWiC-43" value="" style="shape=curlyBracket;whiteSpace=wrap;html=1;rounded=1;fontSize=16;" vertex="1" parent="WIyWlLk6GJQsqaUBKTNV-1">
          <mxGeometry x="506" y="885" width="20" height="40" as="geometry" />
        </mxCell>
        <mxCell id="SwvnbYHAxAY3qFGDEWiC-44" value="系谱聚类" style="text;html=1;align=center;verticalAlign=middle;resizable=0;points=[];autosize=1;strokeColor=none;fillColor=none;fontSize=13;" vertex="1" parent="WIyWlLk6GJQsqaUBKTNV-1">
          <mxGeometry x="520" y="877" width="70" height="20" as="geometry" />
        </mxCell>
        <mxCell id="SwvnbYHAxAY3qFGDEWiC-45" value="密度聚类" style="text;html=1;align=center;verticalAlign=middle;resizable=0;points=[];autosize=1;strokeColor=none;fillColor=none;fontSize=13;" vertex="1" parent="WIyWlLk6GJQsqaUBKTNV-1">
          <mxGeometry x="520" y="914" width="70" height="20" as="geometry" />
        </mxCell>
      </root>
    </mxGraphModel>
  </diagram>
</mxfile>
